<?xml version="1.0" encoding="UTF-8"?>
<svg id="uuid-198c2dc3-7c1a-4465-a4e3-f3a903a50160" xmlns="http://www.w3.org/2000/svg" viewBox="0 0 1637.7 329.2"><defs>
	<style>.uuid-0af3e7fc-7a94-4de7-8242-2e727a045522{fill:#009fff;}</style></defs>
	<path class="uuid-0af3e7fc-7a94-4de7-8242-2e727a045522" d="m803.4,73.7c-21.4,0-43.5,9-53.4,23v-18.1h-63.7v250.6h63.7v-91.6c9.9,14,32,23,53.4,23,49.7,0,83-45.2,83-93.7s-33.3-93.2-83-93.2Zm-16.8,134.7c-21.8,0-36.6-16.8-36.6-40.7s14.4-41.9,36.6-41.9c21,0,36.2,17.7,36.2,41.9s-15.3,40.7-36.2,40.7Zm-181.4-134.7c-29.6,0-47.2,13.1-59.6,29.2-10.3-17.7-26.3-29.2-54.2-29.2-20.9,0-37,6.2-48.9,23.4v-18.5h-63.7v177.1h63.7v-93.2c0-20.5,7-35.3,27.1-35.3s23,13.6,23,37.4v91.2h63.7v-93.2c0-20.5,7-35.3,27.1-35.3s23,13.6,23,37.4v91.2h63.7v-106.6c0-42.4-17.3-75.6-64.9-75.6Zm-336.5,0c-50.9,0-95.3,40.7-95.3,93.2s43.5,93.7,95.7,93.7,95.3-41.5,95.3-94.1-43.9-92.8-95.7-92.8Zm.4,136.4c-22.2,0-33.7-22.6-33.7-43.1s11.5-42.7,33.3-42.7c23,0,33.7,22.6,33.7,42.3s-11.1,43.5-33.3,43.5Zm-171.7.4c-23,0-38.2-21.4-38.2-42.7,0-25.1,15.6-43.5,38.2-43.5,13.1,0,25.1,5.3,35.3,16.4l36.6-34.1c-18.9-22.6-41.9-32.9-71.9-32.9C40.7,73.7,0,116.4,0,167.8s41.5,92.8,97.4,92.8c34.5,0,56.3-11.5,77.6-38.2l-42.7-30c-9.8,11.5-18.5,18.1-34.9,18.1ZM1378.5,73.7c-21,0-39.4,7.8-50.9,23.4v-18.5h-63.7v177.1h63.7v-93.2c0-21.8,10.7-35.3,29.2-35.3s25.1,13.6,25.1,37.4v91.2h63.7v-106.5c-.1-42.4-19.4-75.6-67.1-75.6Zm-218.7,0c-32,0-61.6,4.9-85,18.1l19.7,38.2c18.5-9.5,38.6-15.2,63.3-15.2,18.1,0,26.3,4.1,26.3,16.4v6.2c-57.5,2.5-125.3,13.1-125.3,68.2,0,33.7,30,55,64.1,55,30.8,0,41.9-4.9,61.2-18.5v13.6h63.7v-112.6c-.1-50.5-29.3-69.4-88-69.4Zm24.2,129c-10.3,9-21,12.7-37,12.7-10.3,0-20.5-6.2-20.5-16.4,0-19.7,30.4-25.9,57.5-25.9v29.6Zm-283.2,53h63.7V0h-63.7v255.7Zm651.6-48.7l85.3-128.4h-173.8v49.3h64.9c5.8,0,10.7-.4,10.7-.4,0,0-4.1,4.5-7.4,9.4l-80.1,118.7h175.4v-49.3h-63c-3.6.1-8.9.4-12,.7Zm-570.3-127.6v176.2h63.7V79.2c-10,3.5-20.7,5.5-31.6,5.5s-22-1.9-32.1-5.3Z"/>
</svg>
