<?xml version="1.0" encoding="utf-8"?>
<!-- Generator: Adobe Illustrator 27.6.1, SVG Export Plug-In . SVG Version: 6.00 Build 0)  -->
<svg version="1.1" id="uuid-198c2dc3-7c1a-4465-a4e3-f3a903a50160"
	 xmlns="http://www.w3.org/2000/svg" xmlns:xlink="http://www.w3.org/1999/xlink" x="0px" y="0px" viewBox="0 0 1637.7 329.2"
	 style="enable-background:new 0 0 1637.7 329.2;" xml:space="preserve">
<style type="text/css">
	.st0{fill:#FFCD34;}
	.st1{fill:#009FFF;}
	.st2{font-family:'Roboto-Bold';}
	.st3{font-size:140px;}
</style>
<rect x="1142.4" y="55" class="st0" width="367.2" height="219.3"/>
<path class="st1" d="M537.7,104.1c-14.3,0-29,6-35.6,15.3v-12.1h-42.4v166.9h42.4v-61c6.6,9.3,21.3,15.3,35.6,15.3
	c33.1,0,55.3-30.1,55.3-62.4S570.8,104.1,537.7,104.1L537.7,104.1z M526.5,193.8c-14.5,0-24.4-11.2-24.4-27.1s9.6-27.9,24.4-27.9
	c14,0,24.1,11.8,24.1,27.9S540.4,193.8,526.5,193.8z M405.7,104.1c-19.7,0-31.4,8.7-39.7,19.4c-6.9-11.8-17.5-19.4-36.1-19.4
	c-13.9,0-24.6,4.1-32.6,15.6v-12.3h-42.4v118h42.4v-62.1c0-13.7,4.7-23.5,18-23.5c13.4,0,15.3,9.1,15.3,24.9v60.7h42.4v-62.1
	c0-13.7,4.7-23.5,18-23.5s15.3,9.1,15.3,24.9v60.7h42.4v-71C448.9,126.2,437.4,104.1,405.7,104.1L405.7,104.1z M181.6,104.1
	c-33.9,0-63.5,27.1-63.5,62.1s29,62.4,63.7,62.4s63.5-27.6,63.5-62.7S216.1,104.1,181.6,104.1L181.6,104.1z M181.9,194.9
	c-14.8,0-22.4-15.1-22.4-28.7c0-13.7,7.7-28.4,22.2-28.4c15.3,0,22.4,15.1,22.4,28.2C204,179.1,196.6,194.9,181.9,194.9L181.9,194.9
	z M67.5,195.2c-15.3,0-25.4-14.3-25.4-28.4c0-16.7,10.4-29,25.4-29c8.7,0,16.7,3.5,23.5,10.9l24.4-22.7
	c-12.6-15.1-27.9-21.9-47.9-21.9c-37.8,0-64.9,28.4-64.9,62.7s27.6,61.8,64.9,61.8c23,0,37.5-7.7,51.7-25.4l-28.4-20
	C84.2,190.8,78.4,195.2,67.5,195.2L67.5,195.2z M920.7,104.1c-14,0-26.2,5.2-33.9,15.6v-12.3h-42.4v118h42.4v-62.1
	c0-14.5,7.1-23.5,19.4-23.5c12.3,0,16.7,9.1,16.7,24.9v60.7h42.4v-70.9C965.4,126.2,952.5,104.1,920.7,104.1L920.7,104.1z
	 M775.1,104.1c-21.3,0-41,3.3-56.6,12.1l13.1,25.4c12.3-6.3,25.7-10.1,42.2-10.1c12.1,0,17.5,2.7,17.5,10.9v4.1
	c-38.3,1.7-83.5,8.7-83.5,45.4c0,22.4,20,36.6,42.7,36.6c20.5,0,27.9-3.3,40.8-12.3v9.1h42.4v-75
	C833.6,116.6,814.2,104.1,775.1,104.1L775.1,104.1z M791.2,190c-6.9,6-14,8.5-24.6,8.5c-6.9,0-13.7-4.1-13.7-10.9
	c0-13.1,20.2-17.2,38.3-17.2V190L791.2,190z M602.6,225.3H645V55h-42.4V225.3z M1036.5,192.8l56.8-85.5H977.6v32.8h43.2
	c3.9,0,7.1-0.3,7.1-0.3s-2.7,3-4.9,6.3l-53.3,79.1h116.8v-32.8h-42C1042.1,192.4,1038.6,192.6,1036.5,192.8z M656.7,107.9v117.4
	h42.4V107.7c-6.7,2.3-13.8,3.7-21,3.7C670.8,111.4,663.4,110.1,656.7,107.9L656.7,107.9z"/>
<text transform="matrix(1 0 0 1 1180.3622 207.8201)" class="st2 st3">Beta</text>
</svg>
