<?xml version="1.0" ?><!DOCTYPE svg  PUBLIC '-//W3C//DTD SVG 1.1//EN'  'http://www.w3.org/Graphics/SVG/1.1/DTD/svg11.dtd'><svg enable-background="new 0 0 128 128" height="128px" id="Layer_1" version="1.1" viewBox="0 0 128 128" width="128px" xml:space="preserve" xmlns="http://www.w3.org/2000/svg" xmlns:xlink="http://www.w3.org/1999/xlink"><g><circle cx="64" cy="64" fill="#1E3796" r="64"/></g><g><polygon fill="#FFE100" points="64,28.034 59.943,30.858 61.374,26.126 57.436,23.142 62.377,23.04 64,18.373 65.622,23.04    70.564,23.142 66.625,26.126 68.058,30.858  "/><polygon fill="#FFE100" points="83.692,33.311 79.635,36.135 81.067,31.405 77.128,28.419 82.07,28.316 83.692,23.651    85.314,28.316 90.257,28.419 86.317,31.405 87.75,36.135  "/><polygon fill="#FFE100" points="98.109,47.726 94.052,50.55 95.484,45.819 91.545,42.834 96.485,42.732 98.109,38.065    99.73,42.732 104.673,42.834 100.734,45.819 102.167,50.55  "/><polygon fill="#FFE100" points="64,106.805 59.943,109.628 61.374,104.897 57.436,101.913 62.377,101.811 64,97.141    65.622,101.811 70.564,101.913 66.625,104.897 68.058,109.628  "/><polygon fill="#FFE100" points="44.308,101.527 40.251,104.351 41.682,99.62 37.744,96.635 42.685,96.533 44.308,91.865    45.93,96.533 50.872,96.635 46.934,99.62 48.366,104.351  "/><polygon fill="#FFE100" points="29.893,87.11 25.836,89.936 27.266,85.203 23.327,82.218 28.269,82.117 29.893,77.448    31.516,82.117 36.455,82.218 32.517,85.203 33.95,89.936  "/><polygon fill="#FFE100" points="103.385,67.42 99.327,70.243 100.76,65.511 96.82,62.526 101.763,62.425 103.385,57.757    105.007,62.425 109.948,62.526 106.01,65.511 107.442,70.243  "/><polygon fill="#FFE100" points="98.107,87.114 94.052,89.936 95.484,85.205 91.543,82.221 96.484,82.118 98.107,77.448    99.73,82.118 104.672,82.221 100.732,85.205 102.163,89.936  "/><polygon fill="#FFE100" points="83.692,101.529 79.635,104.351 81.067,99.62 77.128,96.635 82.07,96.533 83.692,91.865    85.314,96.533 90.257,96.635 86.317,99.62 87.75,104.351  "/><polygon fill="#FFE100" points="24.615,67.42 20.559,70.243 21.99,65.511 18.051,62.526 22.993,62.425 24.615,57.755    26.238,62.425 31.18,62.526 27.241,65.511 28.674,70.243  "/><polygon fill="#FFE100" points="29.893,47.729 25.836,50.552 27.266,45.82 23.327,42.836 28.269,42.734 29.893,38.065    31.516,42.734 36.455,42.836 32.517,45.82 33.95,50.552  "/><polygon fill="#FFE100" points="44.308,33.312 40.251,36.135 41.682,31.405 37.744,28.417 42.685,28.316 44.308,23.649    45.93,28.316 50.872,28.417 46.934,31.405 48.366,36.135  "/></g></svg>