<?xml version="1.0" encoding="UTF-8"?><svg id="uuid-4a90b2ed-4668-4750-b0b8-7c4fc1b0b1cc" xmlns="http://www.w3.org/2000/svg" viewBox="0 0 1080 1080"><defs><style>.uuid-4e3dcf30-76f8-4665-8e28-b0f7bed2e3ce{fill:#009fff;}.uuid-c6794c6b-52bf-4b05-9df0-5a7746f7fe33{fill:#fff;}</style></defs><rect class="uuid-4e3dcf30-76f8-4665-8e28-b0f7bed2e3ce" width="1080" height="1080"/><g><path class="uuid-c6794c6b-52bf-4b05-9df0-5a7746f7fe33" d="m713.1,430.7c-2.4-2.4-6.4-2.4-8.9,0l-203.3,203.3,8.9,8.9,203.3-203.3c2.4-2.5,2.4-6.5,0-8.9Zm-185.9,132.5c-2.4-2.4-6.4-2.4-8.9,0l-44.1,44.1,8.9,8.9,44.1-44.1c2.4-2.4,2.4-6.4,0-8.9Zm252.1-267.8c19.2,0,37.3,7.8,50.5,22,25.5,27.4,23.1,70.7-3.4,97.1l-120,120c-2.4,2.4-2.4,6.4,0,8.9,2.4,2.4,6.4,2.4,8.9,0l119.8-119.8c31.7-31.7,33.4-85.2,1.7-116.8-15.9-15.9-36.7-23.8-57.5-23.8s-41.7,7.9-57.6,23.8l-274,274,8.9,8.9,274-274c13-13.1,30.3-20.3,48.7-20.3Zm-234.2,143.6c-2.4-2.4-6.4-2.4-8.9,0l-115.1,115.2,8.9,8.9,115.2-115.2c2.4-2.4,2.4-6.4-.1-8.9Zm30.6-21.7l128.3-128.3c20.1-20.1,46.8-31.2,75.3-31.2,21.6,0,42.1,6.5,59.5,18.3,2.5,1.7,5.9,1.5,8-.7,2.8-2.8,2.3-7.5-1-9.7-20-13.6-43.3-20.5-66.5-20.5-30.4,0-60.9,11.6-84.1,34.8l-128.4,128.5c-2.4,2.4-2.4,6.4,0,8.9,2.5,2.4,6.5,2.4,8.9-.1Zm109,147.8c-2.4-2.4-6.4-2.4-8.9,0l-95.4,95.4c-2.4,2.4-2.4,6.4,0,8.9h0c2.4,2.4,6.4,2.4,8.8,0l95.4-95.4c2.5-2.5,2.5-6.4.1-8.9Zm143.5-99.3l-247.7,247.8,8.9,8.8,247.8-247.8c2.4-2.4,2.4-6.4,0-8.9-2.6-2.3-6.5-2.3-9,.1Zm50-167.4c-2.2-3.3-6.9-3.9-9.7-1.1-2.1,2.1-2.4,5.5-.7,8,11.6,17.3,17.9,37.6,17.9,59,0,26.4-9.5,51.3-27,70.8-2.3,2.5-2.3,6.3.1,8.7,2.5,2.5,6.7,2.5,9-.1,36.7-40.8,40.1-100.8,10.4-145.3Zm-134.6,110.6l38.5-38.5c2.4-2.4,2.4-6.4,0-8.9-2.4-2.4-6.4-2.4-8.9,0l-38.5,38.5c-2.4,2.4-2.4,6.4,0,8.8,2.5,2.5,6.5,2.5,8.9.1Zm65.8-76.5c-8.5-8-19.3-12.1-30.2-12.1s-22.4,4.3-31,12.8l-199.3,199.5c-2.4,2.4-2.4,6.4,0,8.9,2.4,2.4,6.4,2.4,8.9,0l198.4-198.6c5.1-5.1,11.7-8.9,18.9-9.8,9.8-1.2,19.3,2,26.2,8.9,5.9,5.9,9.2,13.8,9.2,22.1s-3.3,16.2-9.2,22.1l-274,274,8.9,8.8,272.7-272.7c17.5-17.3,18.4-46.8.5-63.9Z"/><path class="uuid-c6794c6b-52bf-4b05-9df0-5a7746f7fe33" d="m259.4,557.6c-2.4,2.4-2.4,6.3,0,8.7l122.2,122.2c2.4,2.4,6.3,2.4,8.7,0,2.4-2.4,2.4-6.3,0-8.7l-122.2-122.2c-2.4-2.4-6.3-2.4-8.7,0Zm133.2,246.2c2.4,2.4,6.3,2.4,8.7,0,2.4-2.4,2.4-6.3,0-8.7l-131.9-132c-2.4-2.4-6.3-2.4-8.7,0-2.4,2.4-2.4,6.3,0,8.7l131.9,132Zm197-81.7l-191.6-191.6h0l-53-53c-22.9-22.8-52.8-34.3-82.7-34.3s-59.9,11.4-82.7,34.3c-45.7,45.7-45.7,119.8,0,165.4l147,147h0l66.6,66.6c2.4,2.4,6.3,2.4,8.7,0,0,0,0-.1.1-.1s.1,0,.2-.1l14.9-14.9,1.3,36.6c0,.9.2,1.7.6,2.5.3.8.7,1.6,1.4,2.2,2.4,2.4,6.3,2.4,8.7,0l.3-.3c.1-.1.2-.2.3-.3l158.4-158.4h0l1.5-1.6Zm-87.2,69.8l-81.7-81.7c-2.4-2.4-6.3-2.4-8.7,0-2.4,2.4-2.4,6.3,0,8.7l81.7,81.7-17.3,17.3-235.9-235.9c-5.8-5.8-9-13.5-9-21.8s3.2-15.9,9-21.8c5.8-5.8,13.5-9,21.8-9s15.9,3.2,21.8,9l235.9,236-17.6,17.5Zm52.4-52.4l-31.3-31.3c-2.4-2.4-6.3-2.4-8.7,0s-2.4,6.3,0,8.7l31.3,31.3-17.4,17.4-236-235.9c-8.4-8.4-19.4-12.6-30.5-12.6s-22.1,4.2-30.5,12.6c-16.8,16.8-16.8,44.1,0,61l235.9,235.9-36.9,36.9-1.3-37.5c-.1-2.6-1.7-4.9-4.1-5.8-2.4-.9-5.1-.4-7,1.5l-21.3,21.3-52.5-52.5h0l-156.3-156.3c-19.8-19.8-30.7-46.1-30.7-74s10.9-54.2,30.7-74,46-30.7,74-30.7,54.3,10.9,74,30.7l47.1,47.1h0l188.8,188.8-17.3,17.4Zm-352.2-211.2c1.3-2.4,1-5.4-1-7.4-2.9-2.9-7.9-2.2-9.9,1.5-16.2,30.3-11.6,68.8,13.9,94.4l24.6,24.6c2.4,2.4,6.3,2.4,8.7,0s2.4-6.3,0-8.7l-24.6-24.6c-21.5-21.6-25.4-54.2-11.7-79.8Zm59.6-48.1c-12.9,0-25.7,3.1-37.3,9.2-3.7,1.9-4.5,6.9-1.5,9.9,2,2,4.9,2.3,7.4,1,9.6-5.1,20.3-7.8,31.5-7.8,18.1,0,35.1,7,47.9,19.8l174.2,174.2c2.4,2.4,6.3,2.4,8.7,0,2.4-2.4,2.4-6.3,0-8.7l-174.2-174.2c-15.7-15.6-36.2-23.4-56.7-23.4Z"/></g></svg>