<?xml version="1.0" encoding="UTF-8"?>
<svg width="18" height="18" id="uuid-098657ec-4091-4c5d-b2f8-761b37dc9655" xmlns="http://www.w3.org/2000/svg"
	 viewBox="0 0 18 15.26">
	<defs>
		<style>.uuid-fb9dd603-42c0-4281-8513-899f01887edf{fill:#fff;}</style>
	</defs>
	<path class="uuid-fb9dd603-42c0-4281-8513-899f01887edf"
		  d="m13.54,4.47c-.06-.06-.15-.06-.21,0l-4.9,4.9.21.21,4.9-4.9c.06-.06.06-.16,0-.21h0Zm-4.48,3.19c-.06-.06-.15-.06-.21,0l-1.06,1.06.21.21,1.06-1.06c.06-.06.06-.15,0-.21ZM15.14,1.21c.46,0,.9.19,1.22.53.61.66.56,1.7-.08,2.34l-2.89,2.89c-.06.06-.06.15,0,.21.06.06.15.06.21,0l2.89-2.89c.76-.76.8-2.05.04-2.81-.38-.38-.88-.57-1.39-.57s-1,.19-1.39.57l-6.6,6.6.21.21L13.96,1.7c.31-.32.73-.49,1.17-.49h0Zm-5.64,3.46c-.06-.06-.15-.06-.21,0l-2.77,2.78.21.21,2.78-2.78c.06-.06.06-.15,0-.21h0Zm.74-.52l3.09-3.09c.48-.48,1.13-.75,1.81-.75.52,0,1.01.16,1.43.44.06.04.14.04.19-.02.07-.07.06-.18-.02-.23-.48-.33-1.04-.49-1.6-.49-.73,0-1.47.28-2.03.84l-3.09,3.1c-.06.06-.06.15,0,.21.06.06.16.06.21,0h0Zm2.63,3.56c-.06-.06-.15-.06-.21,0l-2.3,2.3c-.06.06-.06.15,0,.21h0c.06.06.15.06.21,0l2.3-2.3c.06-.06.06-.15,0-.21h0Zm3.46-2.39l-5.97,5.97.21.21,5.97-5.97c.06-.06.06-.15,0-.21-.06-.06-.16-.06-.22,0Zm1.2-4.03c-.05-.08-.17-.09-.23-.03-.05.05-.06.13-.02.19.28.42.43.91.43,1.42,0,.64-.23,1.24-.65,1.71-.06.06-.06.15,0,.21.06.06.16.06.22,0,.88-.98.97-2.43.25-3.5h0Zm-3.24,2.66l.93-.93c.06-.06.06-.15,0-.21-.06-.06-.15-.06-.21,0l-.93.93c-.06.06-.06.15,0,.21.06.06.16.06.21,0h0Zm1.59-1.84c-.2-.19-.47-.29-.73-.29s-.54.1-.75.31l-4.8,4.81c-.06.06-.06.15,0,.21.06.06.15.06.21,0l4.78-4.79c.12-.12.28-.21.46-.24.24-.03.47.05.63.21.14.14.22.33.22.53s-.08.39-.22.53l-6.6,6.6.21.21,6.57-6.57c.42-.42.44-1.13.01-1.54h0Z"/>
	<g>
		<rect class="uuid-fb9dd603-42c0-4281-8513-899f01887edf" x="7.81" y="5.93" width="2.91" height="5.64"
			  transform="translate(-3.47 9.11) rotate(-45)"/>
		<path class="uuid-fb9dd603-42c0-4281-8513-899f01887edf"
			  d="m10.7,11.35l-4.62-4.62h0l-1.28-1.28c-.55-.55-1.27-.83-1.99-.83s-1.44.27-1.99.83c-1.1,1.1-1.1,2.89,0,3.99l3.54,3.54h0l1.6,1.6c.06.06.15.06.21,0,0,0,0,0,0,0s0,0,0,0l.36-.36.03.88s0,.04.01.06c0,.02.02.04.03.05.06.06.15.06.21,0h0s0-.01,0-.01l3.82-3.82h0s.04-.04.04-.04Z"/>
		<path class="uuid-fb9dd603-42c0-4281-8513-899f01887edf"
			  d="m11.09,10.9l4.62-4.62h0l1.28-1.28c.55-.55.83-1.27.83-1.99s-.27-1.44-.83-1.99c-1.1-1.1-2.89-1.1-3.99,0l-3.54,3.54h0l-1.6,1.6c-.06.06-.06.15,0,.21,0,0,0,0,0,0s0,0,0,0l.36.36-.88.03s-.04,0-.06.01c-.02,0-.04.02-.05.03-.06.06-.06.15,0,.21h0s0,.01,0,.01l3.82,3.82h0s.04.04.04.04Z"/>
	</g>
</svg>
