<?xml version="1.0" encoding="utf-8"?>
<!-- Generator: Adobe Illustrator 27.6.1, SVG Export Plug-In . SVG Version: 6.00 Build 0)  -->
<svg version="1.1" id="uuid-7dd7b5b8-c5e0-4d79-ad53-47e9a05e6f8e"
	 xmlns="http://www.w3.org/2000/svg" xmlns:xlink="http://www.w3.org/1999/xlink" x="0px" y="0px" viewBox="0 0 1354.3 343"
	 style="enable-background:new 0 0 1354.3 343;" xml:space="preserve">
<style type="text/css">
	.st0{fill:#009FFF;}
	.st1{fill:#333333;}
</style>
<path class="st0" d="M663.5,62.7c-17.7,0-36,7.4-44.2,19v-15h-52.7V274h52.7v-75.8c8.2,11.6,26.5,19,44.2,19
	c41.1,0,68.6-37.4,68.6-77.5S704.6,62.7,663.5,62.7L663.5,62.7L663.5,62.7z M649.6,174.1c-18,0-30.3-13.9-30.3-33.7
	s11.9-34.7,30.3-34.7c17.4,0,29.9,14.6,29.9,34.7S666.9,174.1,649.6,174.1z M499.6,62.7c-24.5,0-39,10.8-49.3,24.1
	c-8.5-14.6-21.8-24.1-44.8-24.1c-17.3,0-30.6,5.1-40.4,19.3V66.8h-52.7v146.4H365v-77.1c0-16.9,5.8-29.2,22.4-29.2s19,11.2,19,30.9
	v75.4h52.7v-77.1c0-16.9,5.8-29.2,22.4-29.2s19,11.2,19,30.9v75.4h52.7v-88.2C553.2,90.2,538.9,62.7,499.6,62.7L499.6,62.7
	L499.6,62.7z M221.3,62.7c-42.1,0-78.8,33.7-78.8,77.1s36,77.5,79.1,77.5s78.8-34.3,78.8-77.8S264.1,62.7,221.3,62.7L221.3,62.7
	L221.3,62.7z M221.6,175.5c-18.4,0-27.9-18.7-27.9-35.6s9.5-35.3,27.5-35.3c19,0,27.9,18.7,27.9,35S240,175.5,221.6,175.5
	L221.6,175.5L221.6,175.5z M79.6,175.8c-19,0-31.6-17.7-31.6-35.3c0-20.8,12.9-36,31.6-36c10.8,0,20.8,4.4,29.2,13.6l30.3-28.2
	c-15.6-18.7-34.7-27.2-59.5-27.2C32.7,62.7-0.9,98-0.9,140.5s34.3,76.7,80.6,76.7c28.5,0,46.6-9.5,64.2-31.6l-35.3-24.8
	C100.4,170.4,93.2,175.8,79.6,175.8L79.6,175.8L79.6,175.8z M1139,62.7c-17.4,0-32.6,6.4-42.1,19.3V66.7h-52.7v146.4h52.7v-77.1
	c0-18,8.8-29.2,24.2-29.2s20.8,11.2,20.8,30.9v75.4h52.7v-88.1C1194.5,90.2,1178.5,62.7,1139,62.7L1139,62.7L1139,62.7z M958.2,62.7
	c-26.5,0-50.9,4-70.3,15l16.3,31.6c15.3-7.9,31.9-12.6,52.3-12.6c15,0,21.8,3.4,21.8,13.6v5.1c-47.5,2.1-103.6,10.8-103.6,56.4
	c0,27.9,24.8,45.5,53,45.5c25.5,0,34.7-4.1,50.6-15.3v11.2h52.7v-93.1C1030.9,78.3,1006.7,62.7,958.2,62.7L958.2,62.7L958.2,62.7z
	 M978.2,169.4c-8.5,7.4-17.4,10.5-30.6,10.5c-8.5,0-17-5.1-17-13.6c0-16.3,25.1-21.4,47.5-21.4V169.4z M744,213.2h52.7V1.7H744
	V213.2L744,213.2z M1282.8,172.9l70.5-106.2h-143.7v40.8h53.7c4.8,0,8.8-0.3,8.8-0.3s-3.4,3.7-6.1,7.8l-66.2,98.2h145.1v-40.8h-52.1
	C1289.8,172.4,1285.4,172.7,1282.8,172.9L1282.8,172.9L1282.8,172.9z M811.2,67.4v145.7h52.7V67.2c-8.3,2.9-17.1,4.6-26.1,4.6
	S819.6,70.2,811.2,67.4L811.2,67.4L811.2,67.4z"/>
<g>
	<g>
		<path class="st1" d="M649.8,345v-8l10.1-1.8v-75.6l-11.2-1.8v-8h20.6l1.2,8.4c2.3-3.1,5.2-5.5,8.5-7.2c3.4-1.6,7.2-2.5,11.7-2.5
			c5.8,0,10.8,1.5,14.9,4.6c4.1,3.1,7.3,7.4,9.4,12.9c2.2,5.5,3.3,12,3.3,19.4v1.3c0,6.6-1.1,12.4-3.3,17.3s-5.3,8.8-9.4,11.6
			c-4.1,2.8-9,4.1-14.7,4.1c-4.3,0-8.1-0.7-11.4-2.1c-3.3-1.4-6.1-3.5-8.3-6.3v24l11.2,1.8v8L649.8,345L649.8,345z M686.8,310.6
			c5.9,0,10.4-2.2,13.4-6.4c3-4.3,4.5-9.9,4.5-16.7V286c0-5.3-0.7-9.9-2-13.9c-1.4-4-3.4-7.2-6.1-9.5s-6.1-3.4-10.1-3.4
			c-3.6,0-6.6,0.8-9.2,2.4c-2.6,1.6-4.6,3.8-6.2,6.6v33.6c1.6,2.9,3.7,5.1,6.2,6.7c2.6,1.6,5.7,2.4,9.5,2.4L686.8,310.6z"/>
	</g>
	<g>
		<path class="st1" d="M758,320.5c-6.4,0-11.9-1.5-16.5-4.5s-8.2-7.1-10.7-12.4c-2.5-5.3-3.8-11.3-3.8-18.1v-1.4
			c0-6.8,1.3-12.8,3.8-18.1c2.5-5.3,6.1-9.4,10.7-12.5c4.6-3,10.1-4.5,16.3-4.5s11.9,1.5,16.5,4.5s8.2,7.2,10.7,12.4
			c2.5,5.3,3.8,11.3,3.8,18.1v1.4c0,6.8-1.3,12.9-3.8,18.2c-2.5,5.3-6.1,9.4-10.6,12.4C769.8,319,764.4,320.5,758,320.5L758,320.5z
			 M758.6,310.2c3.9,0,7.2-1.1,9.8-3.2c2.6-2.1,4.6-5.1,6-8.8s2-8,2-12.7v-1.4c0-4.8-0.7-9-2-12.7c-1.4-3.7-3.4-6.7-6-8.8
			c-2.7-2.1-6-3.2-9.9-3.2c-4,0-7.2,1.1-9.9,3.2c-2.7,2.1-4.7,5.1-6,8.8c-1.3,3.7-2,8-2,12.7v1.4c0,4.8,0.7,9,2,12.7
			c1.3,3.7,3.3,6.7,6,8.8S754.6,310.2,758.6,310.2L758.6,310.2z"/>
	</g>
	<g>
		<path class="st1" d="M822.4,319.3l-18.1-59.5l-7.7-0.9v-8h28v8l-8.3,1.4l9.3,34.1l2.1,8.1h0.4l2.8-8.1l14.7-43.5h11.4l14.1,43.1
			l3,9.5h0.4l3-9.5l9.5-33.8l-8.6-1.3v-8h28v8l-7.6,1.1L881,319.3h-12.1L855,278.2l-3.3-11l-0.4,0.1l-3.2,10.9l-14.9,41.1
			L822.4,319.3L822.4,319.3z"/>
	</g>
	<g>
		<path class="st1" d="M943.2,320.6c-6.3,0-11.8-1.4-16.5-4.3c-4.7-2.9-8.3-6.9-10.8-12.1c-2.5-5.2-3.8-11.1-3.8-17.9v-2.8
			c0-6.5,1.3-12.3,4-17.5c2.7-5.1,6.2-9.2,10.7-12.2c4.4-3,9.3-4.5,14.5-4.5c6.1,0,11.3,1.3,15.4,3.8c4.1,2.5,7.3,6.1,9.4,10.7
			c2.1,4.6,3.2,10,3.2,16.2v7.8h-44.3l-0.2,0.3c0.1,4.4,0.9,8.3,2.3,11.7s3.5,6.1,6.3,8c2.7,1.9,6,2.9,9.8,2.9
			c4.2,0,7.9-0.6,11.1-1.8c3.2-1.2,5.9-2.9,8.2-5l4.9,8.1c-2.4,2.4-5.7,4.4-9.7,6C953.7,319.8,948.8,320.6,943.2,320.6L943.2,320.6z
			 M925.3,277.8h31.6v-1.6c0-3.3-0.6-6.2-1.7-8.8c-1.2-2.6-2.9-4.7-5.2-6.1c-2.3-1.5-5.2-2.3-8.7-2.3c-2.8,0-5.3,0.8-7.6,2.4
			c-2.3,1.6-4.2,3.8-5.6,6.6c-1.5,2.8-2.5,6-2.9,9.5L925.3,277.8L925.3,277.8z"/>
	</g>
	<g>
		<path class="st1" d="M980.5,319.3v-8l10.1-1.8v-48.8l-10.1-1.8v-8h21.1l1.1,8.7l0.1,1.2c1.9-3.5,4.2-6.2,7-8.2c2.8-2,6-3,9.6-3
			c1.3,0,2.6,0.1,3.9,0.3c1.3,0.2,2.3,0.4,2.9,0.7l-1.6,11.6l-8.5-0.5c-3.2-0.2-5.9,0.5-8.1,2.2c-2.2,1.7-3.9,4-5.1,6.9v38.7
			l10.1,1.8v8L980.5,319.3L980.5,319.3z"/>
	</g>
	<g>
		<path class="st1" d="M1063.1,320.6c-6.3,0-11.8-1.4-16.5-4.3c-4.7-2.9-8.3-6.9-10.8-12.1c-2.5-5.2-3.8-11.1-3.8-17.9v-2.8
			c0-6.5,1.3-12.3,4-17.5c2.7-5.1,6.2-9.2,10.7-12.2c4.4-3,9.3-4.5,14.5-4.5c6.1,0,11.3,1.3,15.4,3.8c4.1,2.5,7.3,6.1,9.4,10.7
			c2.1,4.6,3.2,10,3.2,16.2v7.8h-44.3l-0.2,0.3c0.1,4.4,0.9,8.3,2.3,11.7c1.4,3.4,3.5,6.1,6.3,8c2.7,1.9,6,2.9,9.8,2.9
			c4.2,0,7.9-0.6,11.1-1.8c3.2-1.2,5.9-2.9,8.2-5l4.9,8.1c-2.4,2.4-5.7,4.4-9.7,6C1073.6,319.8,1068.8,320.6,1063.1,320.6
			L1063.1,320.6z M1045.2,277.8h31.6v-1.6c0-3.3-0.6-6.2-1.7-8.8c-1.2-2.6-2.9-4.7-5.2-6.1c-2.3-1.5-5.2-2.3-8.7-2.3
			c-2.8,0-5.3,0.8-7.6,2.4c-2.3,1.6-4.2,3.8-5.6,6.6s-2.5,6-2.9,9.5L1045.2,277.8L1045.2,277.8z"/>
	</g>
	<g>
		<path class="st1" d="M1127.3,320.6c-5.6,0-10.5-1.4-14.5-4.1c-4-2.8-7.1-6.6-9.2-11.6c-2.1-4.9-3.2-10.7-3.2-17.3v-1.3
			c0-7.4,1.1-13.8,3.2-19.3c2.1-5.5,5.2-9.8,9.3-12.9c4.1-3.1,8.9-4.6,14.6-4.6c4.1,0,7.7,0.8,10.9,2.3c3.1,1.5,5.8,3.7,8,6.5v-27.7
			l-10.1-1.8v-8h23.5v88.9l10.1,1.8v8H1148l-1-8.2c-2.3,3.1-5,5.5-8.3,7.1C1135.4,319.8,1131.7,320.6,1127.3,320.6L1127.3,320.6z
			 M1130.9,309.8c3.7,0,6.7-0.8,9.2-2.5c2.5-1.7,4.6-4,6.2-7.1V269c-1.6-2.8-3.6-5.1-6.2-6.7c-2.5-1.7-5.6-2.5-9.1-2.5
			c-3.9,0-7.1,1.1-9.7,3.3c-2.5,2.2-4.4,5.3-5.7,9.2c-1.2,3.9-1.9,8.5-1.9,13.7v1.3c0,6.8,1.4,12.2,4.2,16.3
			C1120.8,307.8,1125.1,309.8,1130.9,309.8L1130.9,309.8z"/>
	</g>
	<g>
		<path class="st1" d="M1245.2,320.6c-4.5,0-8.3-0.9-11.6-2.6c-3.3-1.7-6-4.2-8.2-7.6l-1.1,8.8h-10.6v-88.8l-10.1-1.8v-8h22.4V259
			c2.2-3,4.8-5.4,8-7c3.2-1.6,6.9-2.4,11.2-2.4c5.6,0,10.5,1.5,14.4,4.6c4,3.1,7,7.3,9.2,12.9c2.1,5.5,3.2,11.9,3.2,19.3v1.3
			c0,6.6-1.1,12.3-3.2,17.3c-2.1,4.9-5.2,8.8-9.2,11.5C1255.6,319.2,1250.8,320.6,1245.2,320.6L1245.2,320.6z M1241.6,310.6
			c6.1,0,10.6-2.2,13.5-6.5c2.9-4.3,4.4-10,4.4-17.1v-1c0-5.3-0.6-10-1.9-14s-3.2-7.1-5.8-9.4c-2.6-2.3-5.9-3.4-9.9-3.4
			c-4,0-7.1,0.9-9.8,2.8c-2.6,1.9-4.8,4.4-6.3,7.5v30.6c1.5,3.1,3.6,5.5,6.2,7.3c2.6,1.8,5.8,2.7,9.5,2.7L1241.6,310.6z"/>
	</g>
	<g>
		<path class="st1" d="M1293.4,346.2c-1,0-2.2-0.1-3.8-0.3c-1.6-0.2-2.8-0.5-3.6-0.7l1.3-9.8c0.7,0.1,1.7,0.2,3,0.2s2.1,0.1,2.6,0.1
			c2.7,0,4.8-1,6.5-3c1.7-2,3.2-4.8,4.7-8.3l3-7.2l-24.3-58.2l-7.4-1v-8.1h29.1v8.1l-8.3,1.3l13.3,34.4l3.2,9h0.4l15.8-43.3
			l-8.7-1.3v-8.1h28v8.1l-7.1,1l-27,70.1c-1.3,3.3-2.8,6.3-4.6,8.9c-1.8,2.6-4,4.6-6.6,6.1C1300.2,345.4,1297,346.2,1293.4,346.2
			L1293.4,346.2z"/>
	</g>
</g>
</svg>
