<?xml version="1.0" encoding="UTF-8"?><svg id="uuid-7dd7b5b8-c5e0-4d79-ad53-47e9a05e6f8e" xmlns="http://www.w3.org/2000/svg" viewBox="0 0 1354.3 343.04"><path d="m664.37,60.95c-17.7,0-35.97,7.44-44.16,19.02v-14.97h-52.68v207.23h52.68v-75.75c8.19,11.58,26.46,19.02,44.16,19.02,41.1,0,68.64-37.38,68.64-77.49s-27.54-77.07-68.64-77.07h0Zm-13.89,111.4c-18.03,0-30.27-13.89-30.27-33.66s11.91-34.65,30.27-34.65c17.37,0,29.94,14.64,29.94,34.65s-12.65,33.66-29.94,33.66Zm-150.01-111.39c-24.48,0-39.03,10.83-49.29,24.15-8.52-14.64-21.75-24.15-44.82-24.15-17.28,0-30.6,5.13-40.44,19.35v-15.3h-52.68v146.45h52.68v-77.07c0-16.95,5.79-29.19,22.41-29.19s19.02,11.25,19.02,30.93v75.42h52.68v-77.07c0-16.95,5.79-29.19,22.41-29.19s19.02,11.25,19.02,30.93v75.42h52.68v-88.15c0-35.06-14.31-62.52-53.67-62.52h0Zm-278.27,0c-42.09,0-78.81,33.66-78.81,77.07s35.97,77.49,79.14,77.49,78.81-34.32,78.81-77.82-36.3-76.74-79.14-76.74h0Zm.33,112.8c-18.36,0-27.87-18.69-27.87-35.64s9.51-35.31,27.54-35.31c19.02,0,27.87,18.69,27.87,34.98s-9.18,35.97-27.54,35.97h0Zm-141.99.33c-19.02,0-31.59-17.7-31.59-35.31,0-20.76,12.9-35.97,31.59-35.97,10.83,0,20.76,4.38,29.19,13.56l30.27-28.2c-15.63-18.69-34.65-27.21-59.46-27.21-46.88,0-80.54,35.31-80.54,77.81s34.32,76.74,80.55,76.74c28.53,0,46.56-9.51,64.17-31.59l-35.31-24.81c-8.1,9.51-15.3,14.97-28.86,14.97h-.01ZM1139.95,60.95c-17.37,0-32.58,6.45-42.09,19.35v-15.3h-52.68v146.45h52.68v-77.07c0-18.03,8.85-29.19,24.15-29.19s20.76,11.25,20.76,30.93v75.42h52.68v-88.07c-.08-35.06-16.04-62.52-55.49-62.52h-.01Zm-180.85,0c-26.46,0-50.94,4.05-70.29,14.97l16.29,31.59c15.3-7.86,31.92-12.57,52.35-12.57,14.97,0,21.75,3.39,21.75,13.56v5.13c-47.55,2.07-103.62,10.83-103.62,56.4,0,27.87,24.81,45.48,53.01,45.48,25.47,0,34.65-4.05,50.61-15.3v11.25h52.68v-93.11c-.08-41.76-24.23-57.39-72.77-57.39h-.01Zm20.01,106.67c-8.52,7.44-17.37,10.5-30.6,10.5-8.52,0-16.95-5.13-16.95-13.56,0-16.29,25.14-21.42,47.55-21.42v24.48Zm-234.19,43.83h52.68V0h-52.68v211.45h0Zm538.84-40.26l70.54-106.18h-143.72v40.77h53.67c4.8,0,8.85-.33,8.85-.33,0,0-3.39,3.72-6.12,7.77l-66.24,98.16h145.05v-40.77h-52.1c-2.98.08-7.36.33-9.92.58h-.01Zm-471.61-105.52v145.71h52.68V65.49c-8.27,2.89-17.12,4.55-26.13,4.55s-18.19-1.57-26.55-4.38h0Z" style="fill:#009fff;"/><g style="isolation:isolate;"><g style="isolation:isolate;"><path d="m653,342.17v-7.18l9-1.58v-67.48l-10-1.58v-7.18h18.38l1.04,7.46c2.09-2.79,4.62-4.92,7.62-6.39,2.99-1.47,6.46-2.2,10.4-2.2,5.18,0,9.6,1.37,13.27,4.1,3.67,2.73,6.47,6.56,8.4,11.48s2.9,10.67,2.9,17.27v1.19c0,5.88-.98,11.02-2.93,15.43s-4.74,7.85-8.37,10.32c-3.63,2.47-7.99,3.7-13.09,3.7-3.86,0-7.25-.63-10.17-1.89-2.92-1.26-5.4-3.14-7.44-5.62v21.41l10,1.58v7.18h-29Zm32.83-30.73c5.31,0,9.34-1.94,12.07-5.81,2.73-3.87,4.1-8.9,4.1-15.09v-1.2c0-4.71-.61-8.85-1.82-12.44s-3.03-6.4-5.44-8.45c-2.41-2.05-5.42-3.07-9.02-3.07-3.19,0-5.92.72-8.2,2.16-2.28,1.44-4.12,3.42-5.52,5.92v30c1.4,2.54,3.24,4.51,5.49,5.89,2.26,1.39,5.04,2.08,8.34,2.08Z"/></g><g style="isolation:isolate;"><path d="m749.56,320.15c-5.68,0-10.58-1.34-14.69-4.01-4.11-2.67-7.28-6.36-9.52-11.08-2.24-4.72-3.35-10.1-3.35-16.16v-1.25c0-6.06,1.12-11.45,3.35-16.16,2.24-4.72,5.41-8.42,9.52-11.11,4.11-2.69,8.97-4.03,14.57-4.03s10.58,1.34,14.69,4.03c4.11,2.69,7.28,6.38,9.52,11.08,2.23,4.7,3.35,10.1,3.35,16.19v1.25c0,6.1-1.12,11.51-3.35,16.22-2.24,4.72-5.4,8.4-9.49,11.05s-8.96,3.98-14.6,3.98Zm.5-9.19c3.49,0,6.42-.96,8.78-2.87,2.36-1.91,4.14-4.53,5.35-7.86,1.21-3.33,1.81-7.11,1.81-11.34v-1.23c0-4.24-.6-8.02-1.81-11.34-1.21-3.33-3-5.95-5.38-7.86-2.38-1.91-5.33-2.87-8.86-2.87s-6.43.96-8.81,2.87c-2.38,1.91-4.16,4.54-5.35,7.86-1.19,3.33-1.78,7.11-1.78,11.34v1.23c0,4.24.59,8.02,1.78,11.34,1.19,3.33,2.98,5.95,5.38,7.86,2.4,1.91,5.36,2.87,8.89,2.87Z"/></g><g style="isolation:isolate;"><path d="m807.07,319.17l-16.19-53.05-6.87-.79v-7.16h25v7.16l-7.44,1.24,8.33,30.38,1.9,7.22h.34l2.46-7.22,13.14-38.78h10.19l12.56,38.48,2.69,8.52h.34l2.64-8.52,8.47-30.17-7.63-1.18v-7.12h25v7.16l-6.82.96-15.91,52.88h-10.62l-12.44-36.64-2.95-9.81-.34.06-2.9,9.75-13.35,36.64h-9.6Z"/></g><g style="isolation:isolate;"><path d="m914.75,320.34c-5.63,0-10.53-1.29-14.69-3.87-4.17-2.58-7.38-6.17-9.65-10.77-2.27-4.6-3.41-9.91-3.41-15.94v-2.49c0-5.8,1.19-11,3.57-15.57,2.38-4.58,5.55-8.2,9.51-10.85,3.96-2.66,8.28-3.99,12.97-3.99,5.48,0,10.07,1.13,13.76,3.39,3.7,2.26,6.48,5.44,8.36,9.52,1.88,4.09,2.81,8.9,2.81,14.44v6.95h-39.52l-.17.28c.07,3.92.76,7.4,2.05,10.43,1.29,3.03,3.16,5.42,5.6,7.15,2.44,1.73,5.37,2.6,8.78,2.6,3.75,0,7.04-.54,9.88-1.61,2.83-1.07,5.28-2.55,7.35-4.44l4.34,7.24c-2.18,2.11-5.06,3.89-8.64,5.34s-7.89,2.18-12.92,2.18Zm-15.96-38.17h28.21v-1.47c0-2.94-.52-5.57-1.55-7.89-1.04-2.32-2.58-4.15-4.64-5.48s-4.63-2.01-7.72-2.01c-2.49,0-4.75.73-6.78,2.18-2.04,1.45-3.71,3.42-5.03,5.91-1.32,2.49-2.19,5.31-2.6,8.48l.11.28Z"/></g><g style="isolation:isolate;"><path d="m948,319.17v-7.1l9-1.58v-43.58l-9-1.58v-7.16h18.84l.94,7.78.11,1.07c1.69-3.12,3.78-5.56,6.27-7.33,2.48-1.77,5.33-2.65,8.53-2.65,1.14,0,2.31.1,3.51.31,1.2.21,2.05.4,2.57.59l-1.44,10.32-7.56-.45c-2.87-.19-5.28.48-7.23,2-1.95,1.52-3.46,3.56-4.53,6.12v34.56l9,1.58v7.1h-29Z"/></g><g style="isolation:isolate;"><path d="m1021.75,320.34c-5.63,0-10.53-1.29-14.69-3.87-4.17-2.58-7.38-6.17-9.65-10.77-2.27-4.6-3.41-9.91-3.41-15.94v-2.49c0-5.8,1.19-11,3.57-15.57,2.38-4.58,5.55-8.2,9.51-10.85,3.96-2.66,8.28-3.99,12.97-3.99,5.48,0,10.07,1.13,13.76,3.39,3.7,2.26,6.48,5.44,8.36,9.52,1.88,4.09,2.81,8.9,2.81,14.44v6.95h-39.52l-.17.28c.07,3.92.76,7.4,2.05,10.43,1.29,3.03,3.16,5.42,5.6,7.15,2.44,1.73,5.37,2.6,8.78,2.6,3.75,0,7.04-.54,9.88-1.61,2.83-1.07,5.28-2.55,7.35-4.44l4.34,7.24c-2.18,2.11-5.06,3.89-8.64,5.34s-7.89,2.18-12.92,2.18Zm-15.96-38.17h28.21v-1.47c0-2.94-.52-5.57-1.55-7.89-1.04-2.32-2.58-4.15-4.64-5.48s-4.63-2.01-7.72-2.01c-2.49,0-4.75.73-6.78,2.18-2.04,1.45-3.71,3.42-5.03,5.91-1.32,2.49-2.19,5.31-2.6,8.48l.11.28Z"/></g><g style="isolation:isolate;"><path d="m1079.04,320.36c-5.03,0-9.34-1.23-12.93-3.7-3.6-2.47-6.35-5.91-8.25-10.32-1.9-4.41-2.85-9.55-2.85-15.43v-1.19c0-6.56.95-12.3,2.85-17.24,1.9-4.94,4.66-8.77,8.28-11.5,3.62-2.73,7.96-4.1,13.02-4.1,3.65,0,6.88.67,9.68,2.01,2.8,1.34,5.19,3.27,7.17,5.79v-24.74l-9-1.58v-7.18h21v79.31l9,1.58v7.11h-19.52l-.91-7.29c-2.02,2.79-4.48,4.9-7.39,6.33s-6.29,2.15-10.14,2.15Zm3.21-9.76c3.26,0,6.01-.74,8.24-2.23,2.23-1.48,4.06-3.58,5.51-6.29v-27.94c-1.41-2.52-3.25-4.53-5.51-6.01-2.26-1.48-4.97-2.23-8.13-2.23-3.49,0-6.36.99-8.63,2.98-2.26,1.99-3.95,4.73-5.06,8.24-1.11,3.51-1.67,7.58-1.67,12.22v1.17c0,6.05,1.24,10.91,3.73,14.58,2.49,3.67,6.33,5.51,11.52,5.51Z"/></g><g style="isolation:isolate;"><path d="m1184.2,320.36c-3.99,0-7.44-.76-10.38-2.29s-5.38-3.77-7.33-6.74l-1.02,7.84h-9.48v-79.26l-9-1.58v-7.16h20v34.19c1.92-2.71,4.29-4.78,7.13-6.21,2.84-1.43,6.16-2.14,9.95-2.14,5.04,0,9.33,1.36,12.89,4.09,3.55,2.73,6.28,6.55,8.18,11.48,1.9,4.93,2.85,10.66,2.85,17.21v1.19c0,5.87-.95,11-2.85,15.4-1.9,4.4-4.62,7.83-8.18,10.29-3.55,2.46-7.81,3.7-12.77,3.7Zm-2.74-9.34c5.25,0,9.16-1.87,11.71-5.61,2.55-3.74,3.83-8.7,3.83-14.86v-1.19c0-4.73-.57-8.88-1.7-12.45s-2.85-6.37-5.16-8.39c-2.31-2.02-5.24-3.03-8.79-3.03s-6.34.83-8.71,2.5c-2.36,1.66-4.24,3.89-5.64,6.69v27.11c1.4,2.84,3.3,5.08,5.7,6.75,2.4,1.66,5.32,2.5,8.76,2.5Z"/></g><g style="isolation:isolate;"><path d="m1227.14,343.04c-.87,0-2-.1-3.4-.31-1.4-.21-2.47-.41-3.23-.59l1.13-8.76c.64.08,1.53.14,2.66.2s1.91.08,2.32.08c2.38,0,4.31-.9,5.8-2.71,1.49-1.81,2.88-4.28,4.16-7.41l2.66-6.44-21.69-51.84-6.57-.9v-7.18h26v7.2l-7.37,1.13,11.86,30.67,2.87,7.99h.34l14.06-38.67-7.76-1.13v-7.2h25v7.18l-6.34.9-24.12,62.46c-1.13,2.94-2.5,5.57-4.11,7.89-1.61,2.32-3.57,4.14-5.89,5.46-2.32,1.32-5.12,1.98-8.41,1.98Z"/></g></g></svg>