<svg xmlns="http://www.w3.org/2000/svg" viewBox="0 0 591.18 159.31" role="img"><title>Powered by Complianz</title><g id="a919312a-7805-4fdc-b3ae-b46e2c96aaf7" data-name="Layer 2"><g id="a32772f1-45e8-4be2-9140-87b723ac6e3a" data-name="Laag 1"><circle cx="309.97" cy="42.77" r="8.07" style="fill:#36a9e1"/><path d="M103.76,128.75H82a16.35,16.35,0,0,1-16.32-16.46V75.59q0-8.5,5.4-13.09a15.73,15.73,0,0,1,10.52-3.64h22.53q7.43,0,11.74,4.58t4.32,11.88v36.83a16.59,16.59,0,0,1-16.46,16.6ZM102,70.87H84.06q-6.61,0-6.61,5.53v34.4a5.33,5.33,0,0,0,1.89,4.12,6.14,6.14,0,0,0,4.18,1.69H102a6.33,6.33,0,0,0,4.79-1.76,5.65,5.65,0,0,0,1.69-4V76.67Q108.48,70.86,102,70.87Z" style="fill:#36a9e1"/><path d="M192,128.75c-3.87,0-5.8-2-5.8-6.07V76.4q0-5.81-5-5.8h-3.77q-6.75,0-6.75,4.45v53.56h-12V75.72q0-5.11-6.47-5.12h-9v58H131.42V59h22.8a15.56,15.56,0,0,1,10.39,3.78A13.75,13.75,0,0,1,173.78,59h7.69q7.56,0,12,4.45t4.46,12.28v47Q197.94,128.74,192,128.75Z" style="fill:#36a9e1"/><path d="M209.13,59h38.19a16.52,16.52,0,0,1,11.33,4,14.66,14.66,0,0,1,5,11.47v36.16a18.87,18.87,0,0,1-4.18,12.55,14.46,14.46,0,0,1-11.74,5.39H220.87v17.81a6.64,6.64,0,0,1-1.55,4.32,5.21,5.21,0,0,1-4.25,1.89,5.55,5.55,0,0,1-4.25-1.82,6.22,6.22,0,0,1-1.69-4.39V75.59m11.74,1.48v39.27h24.69q6.34,0,6.34-5.67V77.21q0-6.08-6.34-6.07H220.87" style="fill:#36a9e1"/><path d="M288.22,128.75H275.94V41.18q0-6.48,6.21-6.47t6.07,6.07Z" style="fill:#36a9e1"/><path d="M316.11,128.75H303.83V65.33q0-6.46,6.21-6.47,6.06,0,6.07,6.07Z" style="fill:#36a9e1"/><path d="M366.53,128.61H344.4a15.16,15.16,0,0,1-10.26-4q-5.65-4.72-5.66-12.82v-13q0-8,4.79-12.69a16.65,16.65,0,0,1,12.21-4.72h25.77v-5.8q0-4.73-7.29-4.72H334.28q-5.94,0-5.94-5.94T334.28,59h32.25c5,0,9,1.47,12,4.39S383,70.28,383,75.32v53.29m-11.74-12V93.53H346.69q-6.48,0-6.47,6.21V110.8a6.24,6.24,0,0,0,5.66,5.81h18.49" style="fill:#36a9e1"/><path d="M442.76,128.75c-3.87,0-5.8-2-5.8-6.07V76.13q0-5.26-5.54-5.26h-25.5v57.74H394.19V59h38.18q16.32,0,16.32,16.73v46.82Q448.69,128.75,442.76,128.75Z" style="fill:#36a9e1"/><path d="M58,116.61H18.08A6.61,6.61,0,0,1,13.63,115a5.4,5.4,0,0,1-1.89-4.32V76.94a5.4,5.4,0,0,1,1.89-4.32A6.61,6.61,0,0,1,18.08,71H48.71q5.94,0,5.94-5.94T48.71,59H16.33A15.71,15.71,0,0,0,0,75.32v37a15.7,15.7,0,0,0,16.33,16.32H62.7A20.05,20.05,0,0,1,58,116.61Z" style="fill:#36a9e1"/><path d="M524.94,159.31c-17.94,0-33.43-6.61-46.05-19.65s-19-28.67-19-46.6a63,63,0,0,1,19-46,63,63,0,0,1,46-19c17.89,0,33.57,6.39,46.6,19s19.64,28.14,19.64,46.05-6.6,33.61-19.61,46.63S542.85,159.31,524.94,159.31Zm0-127.3a59.09,59.09,0,0,0-43.2,17.85,59.13,59.13,0,0,0-17.85,43.2,61,61,0,0,0,17.87,43.82c11.84,12.23,26.37,18.43,43.18,18.43s31.55-6.21,43.8-18.45,18.44-27,18.44-43.8S581,61.75,568.76,49.88,541.76,32,524.94,32Z" style="fill:#36a9e1"/><path d="M559.73,60.26l-2.08-2.08a6.5,6.5,0,0,0-9.15,0l-48.43,48.44-5.5-5.5a6.48,6.48,0,0,0-9.15,0l-2.08,2.08a6.48,6.48,0,0,0,0,9.15l9.48,9.48a6.53,6.53,0,0,0,.55.63l2.08,2.09,4.68,4.47,3.92-3.92a8.11,8.11,0,0,0,.64-.55l2.08-2.09a6.53,6.53,0,0,0,.55-.63l52.41-52.42A6.48,6.48,0,0,0,559.73,60.26Z" style="fill:#36a9e1"/><path d="M523.9,113.14h29.25a6.48,6.48,0,0,1,6.47,6.46v3a6.49,6.49,0,0,1-6.47,6.47H507.9" style="fill:#36a9e1"/><path d="M527.41,72.18H506.16a6.49,6.49,0,0,1-6.47-6.47V62.76a6.49,6.49,0,0,1,6.47-6.47h37.25" style="fill:#36a9e1"/><text transform="translate(0 42.77)" style="font-size:50px;fill:#3c3c3b;font-family:Roboto-Medium, Roboto;font-weight:500;letter-spacing:0.00900390625em">powered by</text></g></g></svg>
